<?xml version="1.0" encoding="utf-8" ?><svg xmlns="http://www.w3.org/2000/svg" xmlns:xlink="http://www.w3.org/1999/xlink" width="320" height="96" viewBox="200 270 890 300"><path fill="#30190D" d="M306.454 294.005C318.704 292.461 330.77 295.167 341.641 301.012C372.079 317.379 375.378 351.061 382.925 381.708L399.032 445.525L410.372 489.316C412.792 498.598 415.591 508.096 416.941 517.605C417.977 524.899 410.342 537.62 403.483 540.12C391.757 544.756 377.482 537.63 372.862 526.093C367.007 511.469 363.416 493.379 359.578 477.927C350.818 478.707 341.836 481.18 333.593 484.157C323.492 488.294 313.84 493.455 304.791 499.559C287.388 511.206 271.438 524.335 254.546 536.768C239.616 547.757 215.556 535.265 214.373 518.339C213.722 509.023 221.164 483.45 223.667 473.054L238.73 410.216L249.642 364.07C253.494 347.784 256.093 330.505 266.564 317.026C276.245 304.323 290.613 296.031 306.454 294.005ZM295.343 454.54C317.156 443.685 326.441 440.389 350.126 434.627L334.074 373.713C332.16 366.507 330.371 359.239 328.363 352.057C325.91 343.285 322.513 338.103 312.915 337.662C309.329 338.649 304.05 341.091 302.747 344.831C290.186 380.887 284.174 419.685 274.209 456.613C272.994 461.115 271.951 465.239 271.011 469.564C279.072 464.447 286.946 459.03 295.343 454.54Z"/><path fill="#713113" d="M312.272 346.342C317.141 346.243 319.025 346.96 320.647 351.795C323.438 360.119 325.211 369 327.433 377.496L340.96 428.759C326.388 432.419 314.346 437.764 300.797 444.068C293.716 447.309 289.185 449.708 282.492 453.683L283.771 447.94C290.037 420.349 297.502 392.924 303.489 365.238C305.065 357.953 305.732 350.455 312.272 346.342Z"/><path fill="#30190D" d="M644.478 360.313C661.295 358.455 682.877 363.354 697.172 372.527C717.207 385.267 731.315 405.492 736.353 428.697C737.803 435.397 739.821 449.612 736.397 455.97C735.447 457.699 731.682 459.431 729.763 459.475C710.791 459.917 692.766 458.762 673.836 461.602C652.019 464.876 640.944 474.619 628.582 491.685C634.092 496.134 639.851 499.707 646.892 501.006C661.31 503.664 676.348 498.409 688.007 490.017C692.651 486.673 696.708 482.967 701.48 479.824L702.12 479.407C714.28 478.62 726.29 477.796 731.175 490.858C731.567 498.961 729.406 502.601 724.06 509.063C708.745 527.251 686.919 538.72 663.254 541.014C638.973 543.388 614.782 534.459 596.187 519.029C577.22 502.982 565.29 480.144 562.954 455.408C558.515 406.237 595.726 364.63 644.478 360.313ZM608.834 467.619C613.682 460.119 618.739 451.686 625.478 445.831C649.026 425.043 661.271 426.754 689.458 423.755C681.542 407.067 666.968 398.784 648.485 400.291C619.624 403.113 602.728 426.236 605.8 454.603C606.292 459.047 607.311 463.416 608.834 467.619Z"/><path fill="#30190D" d="M985.342 359.683C986.569 359.623 987.796 359.578 989.023 359.55C1010.47 359.07 1033.66 364.82 1049.36 380.143C1059.55 390.083 1065.9 402.747 1054.25 414.226C1047.26 421.904 1033.89 421.517 1025.67 415.941C1013.56 407.726 1004.24 398.667 988.188 399.697C979.606 400.248 970.475 404.649 971.012 414.744C971.751 428.615 993.9 430.558 1004.39 432.554C1010.19 433.606 1015.93 434.95 1021.59 436.583C1032.21 439.687 1042.39 444.207 1050.78 451.646C1070.88 469.491 1070.7 501.799 1052.49 520.982C1037.25 537.04 1020.21 541.459 999.088 542.44C977.04 542.109 964.02 537.661 945.2 523.757C926.624 510.035 916.07 482.72 947.523 476.4C958.938 474.106 966.834 487.117 973.765 493.821C981.498 500.721 990.365 502.389 1000.11 501.756C1023.26 500.254 1032.72 479.983 1004.86 473.396C991.084 470.138 975.311 466.364 961.631 461.661C926.017 449.419 915.347 410.988 938.734 381.766C950.589 366.987 967.04 361.437 985.342 359.683Z"/><path fill="#30190D" d="M819.709 360.269C832.56 358.769 847.555 360.948 859.529 365.755C878.846 373.411 894.337 388.42 902.6 407.488C905.645 414.697 907.618 422.314 908.455 430.095C910.28 446.076 909.201 462.884 909.223 478.97C909.241 492.262 910.129 505.901 909.36 519.15C909.185 522.172 908.649 525.318 907.471 528.121C905.351 533.164 900.865 536.837 895.892 538.881C889.497 541.509 882.009 541.54 875.66 538.73C870.176 536.304 866.415 531.586 864.695 525.901C862.5 518.642 863.485 509.57 863.525 502.015C863.62 484.433 865.767 434.216 860.444 420.966C856.674 411.581 850.381 406.692 841.342 402.87C835.506 401.527 829.695 400.759 823.793 402.005C792.328 408.652 796.143 439.095 796.215 462.741L796.339 503.551C796.365 513.518 797.476 523.59 791.59 531.992C781.402 547.26 752.05 540.258 751.397 521.424C750.441 495.257 751.808 468.657 751.255 442.49C750.368 400.614 777.377 365.664 819.709 360.269Z"/><path fill="#30190D" d="M445.819 292.085C461.567 290.366 474.034 297.622 475.376 314.02C476.072 322.522 475.563 332.735 475.563 341.353L475.497 420.888C475.489 436.739 473.923 459.209 478.029 473.89C484.16 495.809 506.545 499.723 526.049 497.836C532.069 497.253 540.607 498.091 546.938 497.62C568.268 493.859 580.555 511.813 572.115 530.831C569.859 535.914 565.049 538.629 559.167 540.264C551.366 540.776 539.144 540.647 531.099 540.55C510.693 540.303 493.994 542.957 474.994 533.844C455.906 524.886 440.917 508.064 433.503 488.366C427.591 472.658 428.664 455.587 428.706 439.052L428.815 393.111L428.761 343.254C428.75 333.642 428.605 324.071 428.966 314.461C429.43 302.124 434.202 295.919 445.819 292.085Z"/></svg>